<?xml version="1.0" encoding="UTF-8" standalone="no"?>
<svg
   xmlns:dc="http://purl.org/dc/elements/1.1/"
   xmlns:cc="http://creativecommons.org/ns#"
   xmlns:rdf="http://www.w3.org/1999/02/22-rdf-syntax-ns#"
   xmlns:svg="http://www.w3.org/2000/svg"
   xmlns="http://www.w3.org/2000/svg"
   xmlns:sodipodi="http://sodipodi.sourceforge.net/DTD/sodipodi-0.dtd"
   xmlns:inkscape="http://www.inkscape.org/namespaces/inkscape"
   width="114.38541"
   height="41.287117"
   viewBox="0 0 30.264474 10.923883"
   version="1.1"
   id="svg16"
   inkscape:version="1.0.1 (c497b03c, 2020-09-10)"
   sodipodi:docname="engie.svg">
  <defs
     id="defs10">
    <clipPath
       id="clip3-1">
      <path
         d="m 555,788 h 17.33594 v 17 H 555 Z m 0,0"
         id="path16879" />
    </clipPath>
    <clipPath
       id="clip4-5">
      <path
         d="M 289.35547,772.78906 H 325 V 781 h -35.64453 z m 0,0"
         id="path16882" />
    </clipPath>
    <clipPath
       id="clip5-9">
      <path
         d="M 289.35547,784 H 325 v 35.65625 h -35.64453 z m 0,0"
         id="path16885" />
    </clipPath>
  </defs>
  <sodipodi:namedview
     id="base"
     pagecolor="#00ffff"
     bordercolor="#666666"
     borderopacity="1.0"
     inkscape:pageopacity="0"
     inkscape:pageshadow="2"
     inkscape:zoom="1.5133388"
     inkscape:cx="82.640528"
     inkscape:cy="67.262205"
     inkscape:document-units="px"
     inkscape:current-layer="layer1"
     inkscape:document-rotation="0"
     showgrid="false"
     units="px"
     lock-margins="true"
     fit-margin-top="0.5"
     fit-margin-left="0.5"
     fit-margin-right="0.5"
     fit-margin-bottom="0.5"
     inkscape:window-width="1440"
     inkscape:window-height="872"
     inkscape:window-x="0"
     inkscape:window-y="28"
     inkscape:window-maximized="0" />
  <metadata
     id="metadata13">
    <rdf:RDF>
      <cc:Work
         rdf:about="">
        <dc:format>image/svg+xml</dc:format>
        <dc:type
           rdf:resource="http://purl.org/dc/dcmitype/StillImage" />
        <dc:title></dc:title>
      </cc:Work>
    </rdf:RDF>
  </metadata>
  <g
     inkscape:label="Layer 1"
     inkscape:groupmode="layer"
     id="layer1"
     transform="translate(7.3403477,-123.01923)">
    <g
       id="g20553"
       transform="translate(-76.84961,-0.90142057)">
      <path
         style="fill:#00bdff;fill-opacity:1;fill-rule:nonzero;stroke:none;stroke-width:0.352778"
         d="m 99.641444,128.36069 c -4.019737,-2.68304 -9.264551,-4.30775 -14.999945,-4.30775 -5.736773,0 -10.980208,1.62471 -14.999945,4.30775 3.997688,-1.32843 8.671994,-2.15387 14.999945,-2.15387 6.327951,0 11.002257,0.82544 14.999945,2.15387"
         id="path17935" />
      <path
         style="fill:#00bdff;fill-opacity:1;fill-rule:nonzero;stroke:none;stroke-width:0.352778"
         d="m 82.341554,129.75527 c -0.294901,0 -0.446486,0.2384 -0.486449,0.53192 -0.04272,0.32246 -0.212217,1.4428 -0.249425,1.72668 -0.02342,0.17088 -0.03583,0.34864 -0.201192,0.42168 -0.165365,0.073 -0.366558,-0.0386 -0.537436,-0.18465 -0.170875,-0.14608 -2.7106,-2.30822 -2.7106,-2.30822 -0.146071,-0.12816 -0.329353,-0.18741 -0.504363,-0.18741 -0.383095,0 -0.752408,0.2384 -0.752408,0.81993 v 3.60495 c 0,0.28112 0.198438,0.46164 0.435459,0.46164 0.261828,0 0.431327,-0.17363 0.468534,-0.42719 0,0 0.278363,-1.71841 0.312816,-1.91134 0.03996,-0.22186 0.07441,-0.39688 0.289387,-0.46302 0.195682,-0.0606 0.378961,0.0524 0.653189,0.29214 0.270097,0.23565 2.556263,2.30133 2.556263,2.30133 0.175009,0.14745 0.303167,0.2067 0.551215,0.2067 0.223241,0 0.632517,-0.0909 0.632517,-0.77859 v -3.59117 c 0,-0.33348 -0.206703,-0.51538 -0.457507,-0.51538"
         id="path17937" />
      <path
         style="fill:#00bdff;fill-opacity:1;fill-rule:nonzero;stroke:none;stroke-width:0.352778"
         d="m 98.698868,133.59724 c -1.992644,0.42857 -4.27192,-0.0289 -4.27192,-1.43867 0,-1.06523 0.988052,-1.49931 1.766644,-1.56132 0.815798,-0.0648 1.453832,0.10611 1.783182,0.44786 0.205327,0.21222 0.14745,0.50299 -0.254935,0.52641 -0.370695,0.0234 -1.067982,0.0441 -1.646756,0.0662 -0.329353,0.0124 -0.504363,0.18879 -0.504363,0.42581 0,0.18742 0.141937,0.40239 0.519522,0.40377 0.542946,0.003 1.919605,0.011 2.603112,0.0138 0.451996,0.001 0.673862,-0.25218 0.673862,-0.7717 0,-0.82269 -0.745519,-2.07119 -2.926955,-2.07119 -1.977485,0 -3.407886,0.98529 -3.407886,2.59484 0,2.28203 3.359654,2.97932 5.820833,2.13045 0.232886,-0.0799 0.445107,-0.24805 0.377581,-0.5085 -0.05926,-0.23013 -0.248048,-0.31832 -0.531921,-0.25769"
         id="path17939" />
      <path
         style="fill:#00bdff;fill-opacity:1;fill-rule:nonzero;stroke:none;stroke-width:0.352778"
         d="m 75.582275,133.59724 c -1.99264,0.42857 -4.273296,-0.0289 -4.273296,-1.43867 0,-1.06523 0.988053,-1.49931 1.766644,-1.56132 0.817178,-0.0648 1.455209,0.10611 1.783183,0.44786 0.206706,0.21222 0.148829,0.50299 -0.254935,0.52641 -0.370696,0.0234 -1.066603,0.0441 -1.646756,0.0662 -0.327974,0.0124 -0.504363,0.18879 -0.504363,0.42581 0,0.18742 0.141936,0.40239 0.519522,0.40377 0.542946,0.003 1.920984,0.011 2.604491,0.0138 0.450617,0.001 0.673858,-0.25218 0.673858,-0.7717 0,-0.82269 -0.745518,-2.07119 -2.92833,-2.07119 -1.976106,0 -3.406511,0.98529 -3.406511,2.59484 0,2.28203 3.359658,2.97932 5.820833,2.13045 0.23289,-0.0799 0.443731,-0.24805 0.376206,-0.5085 -0.05926,-0.23013 -0.248048,-0.31832 -0.530546,-0.25769"
         id="path17941" />
      <path
         style="fill:#00bdff;fill-opacity:1;fill-rule:nonzero;stroke:none;stroke-width:0.352778"
         d="m 91.014927,131.4034 c 0.0441,1.24437 0.162606,2.27652 0.194303,2.63756 0.04272,0.46716 0.283876,0.60083 0.526411,0.60083 0.231511,0 0.478176,-0.12265 0.520898,-0.59669 0.03583,-0.39825 0.15434,-1.63022 0.212217,-2.84841 0.0028,-0.062 -0.04134,-0.0896 -0.09233,-0.0799 l -1.296734,0.20946 c -0.03858,0.008 -0.06615,0.0386 -0.06477,0.0772"
         id="path17943" />
      <path
         style="fill:#00bdff;fill-opacity:1;fill-rule:nonzero;stroke:none;stroke-width:0.352778"
         d="m 91.738396,129.63814 c -0.595312,0 -0.767566,0.46577 -0.760677,0.7524 0,0.0538 0.0069,0.19982 0.01517,0.3831 0.0014,0.0413 0.03858,0.0799 0.08819,0.0744 l 1.353231,-0.22049 c 0.0441,-0.008 0.06477,-0.04 0.06615,-0.0744 0.0041,-0.0634 0.0055,-0.12953 0.0069,-0.15985 0.0083,-0.27423 -0.169499,-0.75516 -0.768946,-0.75516"
         id="path17945" />
      <path
         style="fill:#00bdff;fill-opacity:1;fill-rule:nonzero;stroke:none;stroke-width:0.352778"
         d="m 89.749887,131.62251 c -0.451997,0 -1.843814,0.011 -2.735407,0.0138 -0.432703,0 -0.540191,0.23289 -0.540191,0.42582 0,0.16674 0.115757,0.38309 0.519522,0.40376 0.614605,0.0317 1.395952,0.0689 1.756999,0.0868 0.485069,0.0248 0.491959,0.27423 0.327974,0.4892 -0.329354,0.42857 -1.132749,0.71107 -1.965085,0.71107 -1.088648,0 -2.286166,-0.62012 -2.286166,-1.60128 0,-0.92053 1.02526,-1.93477 4.070727,-1.50757 0.267339,0.0386 0.530543,-0.01 0.596688,-0.2577 0.07028,-0.2632 -0.100594,-0.4327 -0.446482,-0.52365 -0.690397,-0.1819 -1.320162,-0.22462 -1.920984,-0.22462 -2.049145,0 -3.693143,0.9784 -3.693143,2.56039 0,1.68672 1.637108,2.51355 3.67936,2.51355 2.279276,0 3.389975,-1.24162 3.389975,-2.32613 0,-0.5526 -0.281121,-0.76344 -0.753787,-0.76344"
         id="path17947" />
    </g>
  </g>
</svg>
