<svg height="120.4" width="586.4" version="1.1" xmlns="http://www.w3.org/2000/svg">
	<g fill="#d60b4a">
		<path d="m71.2 84c54.8 0 71.2-18 71.2-41.2s-16.4-41.2-71.2-41.2c-55.2 0-71.2 18-71.2 41.2s16 41.2 71.2 41.2m-38.4-41.2c0-17.2 8-31.6 38.4-31.6 30 0 38.4 14.4 38.4 31.6s-8 31.6-38.4 31.6-38.4-14.4-38.4-31.6"/>
		<path d="m251.2 50.8c0-8 7.2-14.4 22.4-14.4 14.8 0 17.6 5.6 17.6 10.8h29.2c0-10-9.2-19.6-44.4-19.6-32 0-48 8.4-52.4 19.2-35.2 0-48-12.8-48-23.6 0-8 7.2-14.4 22.4-14.4 14.8 0 17.6 5.6 17.6 10.8h29.2c0-10-9.2-19.6-44.4-19.6-38 0-53.6 8-53.6 29.6v53.2h27.2v-31.2c10 2.8 22.4 4 35.6 4 4.4 0 8.8 0 13.2-0.4 1.6 20.4 28.4 28.4 62.8 28.4 12.4 0 24-0.8 34.4-2.4v-7.6c-5.6 0.8-12 1.2-19.6 1.2-36.4-0.4-49.2-13.2-49.2-24"/>
		<path d="m374 84.8c33.6 0 51.6-10.4 51.6-28s-18-28-51.6-28-51.6 10.4-51.6 28 18 28 51.6 28m-22.4-28c0-10 2.8-19.2 22.8-19.2 19.6 0 22.8 9.2 22.8 19.2s-2.8 19.2-22.8 19.2-22.8-9.2-22.8-19.2"/>
		<path d="m433 49.6v1.2zm122-21.2c-18.8 0-29.7 6.8-33.3 10.8h-0.401c-3.61-7.2-15.6-10.8-29.7-10.8-19.2 0-27.7 6-30.9 9.6h-0.401v-8h-39.7v8.8c7.62 0 12.4 5.6 12.4 11.2v33.6h27.3v-23.2c0-8.4 8.02-20 23.6-20 9.62 0 12 1.6 12 12.4v30h27.3v-23.2c0-8.4 8.02-20 23.6-20 9.62 0 12 1.6 12 12.4v30.8h27.3v-36.8c0.802-12.4-14-17.6-31.3-17.6"/>
	</g>
	<g>
		<rect class="st7" y="104" width="73.6" height="16.4" fill="#670e37"/>
		<rect class="st2" x="73.6" y="104" width="70.4" height="16.4" fill="#592360"/>
		<rect class="st0" x="144" y="104" width="15.2" height="16.4" fill="#07a7C0"/>
		<rect class="st6" x="159.2" y="104" width="39.2" height="16.4" fill="#bdc00D"/>
		<rect class="st5" x="198.4" y="104" width="12.8" height="16.4" fill="#feeb17"/>
		<rect class="st4" x="211.2" y="104" width="22.8" height="16.4" fill="#f29107"/>
		<rect class="st3" x="234" y="104" width="35.2" height="16.4" fill="#e51879"/>
		<rect class="st1" x="269.2" y="104" width="47.6" height="16.4" fill="#d60B4a"/>
		<rect class="st2" x="316.8" y="104" width="269.6" height="16.4" fill="#592360"/>
	</g>
</svg>
